<?xml version="1.0" encoding="UTF-8" standalone="no"?>
<svg
   xmlns:dc="http://purl.org/dc/elements/1.1/"
   xmlns:cc="http://creativecommons.org/ns#"
   xmlns:rdf="http://www.w3.org/1999/02/22-rdf-syntax-ns#"
   xmlns:svg="http://www.w3.org/2000/svg"
   xmlns="http://www.w3.org/2000/svg"
   id="svg3392"
   version="1.1"
   viewBox="0 0 462 87"
   height="87px"
   width="462px">
  <metadata
     id="metadata3408">
    <rdf:RDF>
      <cc:Work
         rdf:about="">
        <dc:format>image/svg+xml</dc:format>
        <dc:type
           rdf:resource="http://purl.org/dc/dcmitype/StillImage" />
        <dc:title>Group</dc:title>
      </cc:Work>
    </rdf:RDF>
  </metadata>
  <!-- Generator: Sketch 42 (36781) - http://www.bohemiancoding.com/sketch -->
  <title
     id="title3394">Group</title>
  <desc
     id="desc3396">Created with Sketch.</desc>
  <defs
     id="defs3398" />
  <g
     fill-rule="evenodd"
     fill="none"
     stroke-width="1"
     stroke="none"
     id="Page-1">
    <g
       transform="translate(-15.000000, 0.000000)"
       id="Group">
      <g
         id=":TupperVim"
         style="font-weight:400;font-size:72px;font-family:FiraMono-Medium, 'Fira Mono';fill:#ffffff">
        <path
           id="path3411"
           style=""
           d="m 16.268,39.968 q 0,-2.376 1.656,-4.032 1.656,-1.728 4.104,-1.728 2.52,0 4.176,1.728 1.656,1.656 1.656,4.032 0,2.448 -1.656,4.176 -1.656,1.728 -4.176,1.728 -2.448,0 -4.104,-1.728 -1.656,-1.728 -1.656,-4.176 z m 0,25.992 q 0,-2.376 1.656,-4.104 1.656,-1.728 4.104,-1.728 2.52,0 4.176,1.728 1.656,1.656 1.656,4.104 0,2.52 -1.656,4.176 -1.656,1.656 -4.176,1.656 -2.448,0 -4.104,-1.656 -1.656,-1.656 -1.656,-4.176 z" />
        <path
           id="path3413"
           style=""
           d="m 68.295875,71 -6.264,0 0,-44.208 -15.48,0 0,-5.4 37.368,0 -0.648,5.4 -14.976,0 0,44.208 z" />
        <path
           id="path3415"
           style=""
           d="m 100.09175,59.984 q 0,3.672 1.512,5.4 1.584,1.656 4.896,1.656 3.024,0 5.832,-1.728 2.808,-1.728 4.464,-4.32 l 0,-27.936 6.048,0 0,37.944 -5.184,0 -0.504,-5.112 q -2.232,2.808 -5.544,4.392 -3.24,1.512 -6.624,1.512 -5.4,0 -8.208,-2.88 -2.736,-2.88 -2.736,-8.28 l 0,-27.576 6.048,0 0,26.928 z" />
        <path
           id="path3417"
           style=""
           d="m 154.20762,32.264 q 13.75201,0 13.75201,19.728 0,9 -3.74401,14.4 -3.744,5.4 -10.872,5.4 -6.192,0 -10.08,-4.32 l 0,18.072 -6.048,0.72 0,-53.208 5.18401,0 0.50399,5.328 q 2.088,-2.952 4.968,-4.536 2.952,-1.584 6.336,-1.584 z m -1.44,4.896 q -2.87999,0 -5.328,1.728 -2.376,1.728 -4.176,4.32 l 0,18.792 q 1.512,2.232 3.744,3.528 2.304,1.224 4.968,1.224 4.752,0 7.056,-3.6 2.376,-3.672 2.376,-11.16 0,-7.488 -2.088,-11.16 -2.088,-3.672 -6.552,-3.672 z" />
        <path
           id="path3419"
           style=""
           d="m 197.3795,32.264 q 13.752,0 13.752,19.728 0,9 -3.744,14.4 -3.744,5.4 -10.872,5.4 -6.192,0 -10.08,-4.32 l 0,18.072 -6.048,0.72 0,-53.208 5.184,0 0.504,5.328 q 2.088,-2.952 4.968,-4.536 2.952,-1.584 6.336,-1.584 z m -1.44,4.896 q -2.88,0 -5.328,1.728 -2.376,1.728 -4.176,4.32 l 0,18.792 q 1.512,2.232 3.744,3.528 2.304,1.224 4.968,1.224 4.752,0 7.056,-3.6 2.376,-3.672 2.376,-11.16 0,-7.488 -2.088,-11.16 -2.088,-3.672 -6.552,-3.672 z" />
        <path
           id="path3421"
           style=""
           d="m 228.38337,54.152 q 0.216,6.264 3.24,9.432 3.09601,3.168 7.776,3.168 2.80801,0 5.112,-0.792 2.376,-0.864 5.04,-2.592 l 2.808,4.032 q -2.66399,2.088 -6.12,3.24 -3.384,1.152 -6.84,1.152 -8.208,0 -12.816,-5.328 -4.536,-5.4 -4.536,-14.4 0,-5.688 2.016,-10.152 2.016,-4.536 5.76,-7.056 3.744,-2.592 8.712,-2.592 7.2,0 11.30401,5.04 4.17599,4.968 4.17599,13.608 0,1.656 -0.144,3.24 l -25.488,0 z m 10.224,-16.92 q -4.392,0 -7.128,3.168 -2.73599,3.096 -3.096,9.144 l 19.728,0 q -0.072,-5.976 -2.592,-9.144 -2.52,-3.168 -6.912,-3.168 z" />
        <path
           id="path3423"
           style=""
           d="m 292.36325,32.264 q 2.304,0 5.328,0.792 l -0.864,12.888 -4.896,0 0,-8.136 -0.36,0 q -8.784,0 -12.456,12.528 l 0,15.984 7.704,0 0,4.68 -19.728,0 0,-4.68 5.976,0 0,-28.584 -5.976,0 0,-4.68 10.512,0 1.152,9 q 2.304,-4.896 5.472,-7.344 3.24,-2.448 8.136,-2.448 z" />
        <path
           id="path3425"
           style=""
           d="m 337.83912,21.392 6.264,0 -16.55999,49.608 -6.48,0 -16.56001,-49.608 6.696,0 13.24801,42.48 13.39199,-42.48 z" />
        <path
           id="path3427"
           style=""
           d="m 367.475,15.344 q 2.016,0 3.24,1.224 1.224,1.152 1.224,3.024 0,1.872 -1.224,3.096 -1.224,1.152 -3.24,1.152 -1.944,0 -3.168,-1.152 -1.152,-1.224 -1.152,-3.096 0,-1.872 1.152,-3.024 1.224,-1.224 3.168,-1.224 z m 4.824,50.832 10.656,0 0,4.824 -28.368,0 0,-4.824 11.664,0 0,-28.296 -11.304,0 0,-4.824 17.352,0 0,33.12 z" />
        <path
           id="path3429"
           style=""
           d="m 421.23087,32.264 q 3.24,0 5.256,2.304 2.08801,2.232 2.08801,8.208 l 0,28.224 -5.54401,0 0,-27.216 q 0,-3.96 -0.50399,-5.328 -0.50401,-1.44 -2.44801,-1.44 -3.67199,0 -6.62399,4.536 l 0,29.448 -5.616,0 0,-27.216 q 0,-3.96 -0.50401,-5.328 -0.504,-1.44 -2.448,-1.44 -3.672,0 -6.624,4.536 l 0,29.448 -5.54399,0 0,-37.944 4.67999,0 0.432,4.464 q 1.728,-2.52 3.60001,-3.888 1.94399,-1.368 4.608,-1.368 5.32799,0 6.83999,5.04 1.728,-2.448 3.67201,-3.744 1.94399,-1.296 4.67999,-1.296 z" />
      </g>
      <path
         id="Rectangle"
         d="m 433,0 44,0 0,86 -44,0 z"
         style="fill:#008000" />
    </g>
  </g>
</svg>
